{"glyphs":{"\u0000":{"ha":0,"x_min":0,"x_max":0,"o":""},"\r":{"ha":463,"x_min":0,"x_max":0,"o":""}," ":{"ha":361,"x_min":0,"x_max":0,"o":""},"A":{"ha":950,"x_min":14,"x_max":936,"o":"m 606 18 q 646 31 632 21 q 662 64 660 42 q 656 124 664 86 q 631 217 647 161 l 554 474 l 256 474 l 174 214 q 149 126 157 163 q 143 67 142 90 q 158 33 144 44 q 196 18 171 21 l 196 0 l 14 0 l 14 18 q 54 32 38 21 q 85 66 71 43 q 112 126 99 89 q 142 217 125 163 l 399 1042 l 564 1042 l 813 217 q 841 128 828 165 q 868 68 854 92 q 898 33 882 44 q 936 18 914 21 l 936 0 l 606 0 l 606 18 m 544 504 l 407 960 l 264 504 l 544 504 z "},"B":{"ha":829,"x_min":14,"x_max":814,"o":"m 75 882 q 65 983 75 950 q 14 1025 56 1017 l 14 1042 l 393 1042 q 600 1008 519 1042 q 720 923 681 974 q 761 813 760 872 q 733 703 763 754 q 644 619 703 653 q 504 583 586 585 q 671 543 601 586 q 777 435 740 500 q 814 294 814 371 q 771 153 814 218 q 638 44 728 88 q 406 0 549 0 l 14 0 l 14 18 q 65 59 56 26 q 75 160 75 92 l 75 882 m 336 597 q 474 628 418 597 q 558 704 529 658 q 589 804 588 750 q 563 904 590 858 q 479 981 536 950 q 335 1011 422 1011 l 249 1011 l 249 597 l 336 597 m 347 32 q 508 72 443 32 q 606 171 574 111 q 640 299 639 231 q 607 428 640 368 q 506 527 574 488 q 336 567 439 567 l 249 567 l 249 32 l 347 32 z "},"C":{"ha":828,"x_min":8,"x_max":814,"o":"m 397 0 q 215 54 290 6 q 92 178 139 103 q 27 349 46 254 q 17 542 8 444 q 60 733 25 640 q 152 899 94 826 q 291 1015 210 971 q 474 1060 372 1060 q 551 1050 511 1060 q 631 1020 592 1040 q 706 968 669 1000 q 769 892 742 936 l 647 758 l 635 764 q 619 871 638 821 q 570 956 601 921 q 497 1010 539 992 q 407 1019 454 1028 q 297 970 344 1013 q 217 864 249 928 q 172 721 186 800 q 162 559 158 642 q 188 398 165 476 q 254 256 211 319 q 360 153 297 193 q 508 108 424 114 q 665 142 596 101 q 799 250 735 183 l 814 240 q 739 144 781 190 q 645 65 697 99 q 531 14 593 32 q 397 0 469 -4 z "},"D":{"ha":854,"x_min":14,"x_max":844,"o":"m 75 882 q 65 983 75 950 q 14 1025 56 1017 l 14 1042 l 379 1042 q 568 997 485 1042 q 710 879 651 953 q 802 712 769 806 q 840 521 835 618 q 819 330 844 424 q 738 163 794 236 q 593 44 682 89 q 381 0 504 0 l 14 0 l 14 18 q 65 59 56 26 q 75 160 75 92 l 75 882 m 322 32 q 478 74 413 32 q 585 185 543 117 q 648 342 628 254 q 666 522 668 429 q 640 701 664 614 q 574 858 617 789 q 467 969 531 926 q 321 1011 403 1011 l 249 1011 l 249 32 l 322 32 z "},"E":{"ha":825,"x_min":14,"x_max":811,"o":"m 75 882 q 65 983 75 950 q 14 1025 56 1017 l 14 1042 l 375 1042 q 518 1028 456 1042 q 628 990 581 1014 q 711 933 676 967 q 769 861 746 900 l 642 721 l 628 728 q 618 861 638 807 q 559 949 599 915 q 464 997 519 982 q 344 1011 408 1011 q 267 981 286 1011 q 249 882 249 950 l 249 533 l 311 533 q 403 560 378 533 q 432 636 429 588 l 450 636 l 450 414 l 432 414 q 403 483 429 463 q 311 503 378 503 l 249 503 l 249 158 q 262 65 249 100 q 322 31 275 31 l 399 31 q 561 43 497 31 q 668 82 625 56 q 740 149 711 108 q 796 247 768 190 l 811 247 l 750 0 l 14 0 l 14 18 q 65 59 56 26 q 75 160 75 92 l 75 882 z "},"F":{"ha":783,"x_min":14,"x_max":769,"o":"m 75 882 q 65 983 75 950 q 14 1025 56 1017 l 14 1042 l 375 1042 q 518 1028 456 1042 q 628 990 581 1014 q 711 933 676 967 q 769 861 746 900 l 642 721 l 628 728 q 618 861 638 807 q 559 949 599 915 q 464 997 519 982 q 344 1011 408 1011 q 267 981 286 1011 q 249 882 249 950 l 249 533 l 311 533 q 403 560 378 533 q 432 636 429 588 l 450 636 l 450 414 l 432 414 q 403 483 429 463 q 311 503 378 503 l 249 503 l 249 150 q 251 90 249 114 q 260 52 254 67 q 279 30 267 38 q 310 18 292 22 l 310 0 l 14 0 l 14 18 q 45 30 33 22 q 63 52 57 38 q 72 90 69 67 q 75 150 75 114 l 75 882 z "},"G":{"ha":836,"x_min":8,"x_max":815,"o":"m 400 0 q 217 51 293 4 q 93 174 140 99 q 27 344 46 249 q 16 538 8 439 q 58 730 24 636 q 150 897 92 824 q 290 1015 208 971 q 476 1060 372 1060 q 556 1051 514 1060 q 638 1024 597 1043 q 718 972 679 1004 q 788 890 757 939 l 667 767 l 653 774 q 637 884 653 836 q 596 965 621 932 q 539 1013 571 997 q 475 1028 507 1029 q 356 981 408 1025 q 268 866 304 936 q 212 707 232 796 q 188 525 192 618 q 198 344 185 432 q 242 188 211 257 q 322 78 274 119 q 438 39 371 38 q 564 80 522 40 q 606 219 606 119 l 606 388 q 603 442 606 421 q 594 475 600 463 q 576 494 588 488 q 544 504 564 500 l 544 521 l 779 521 l 779 160 q 787 66 779 101 q 815 15 794 31 l 804 0 q 744 17 774 13 q 682 22 714 22 q 615 18 649 22 q 547 10 582 14 q 476 2 513 6 q 400 0 439 -1 z "},"H":{"ha":869,"x_min":14,"x_max":856,"o":"m 75 893 q 72 958 75 933 q 63 995 69 982 q 45 1015 57 1008 q 14 1025 33 1021 l 14 1042 l 310 1042 l 310 1025 q 279 1015 292 1021 q 260 995 267 1008 q 251 958 254 982 q 249 893 249 933 l 249 542 l 621 542 l 621 893 q 618 958 621 933 q 609 995 615 982 q 591 1015 603 1008 q 560 1025 579 1021 l 560 1042 l 856 1042 l 856 1025 q 825 1015 838 1021 q 806 995 813 1008 q 797 958 800 982 q 794 893 794 933 l 794 150 q 797 85 794 110 q 806 48 800 61 q 825 28 813 35 q 856 18 838 22 l 856 0 l 560 0 l 560 18 q 591 28 579 22 q 609 48 603 35 q 618 85 615 61 q 621 150 621 110 l 621 511 l 249 511 l 249 150 q 251 85 249 110 q 260 48 254 61 q 279 28 267 35 q 310 18 292 22 l 310 0 l 14 0 l 14 18 q 45 28 33 22 q 63 48 57 35 q 72 85 69 61 q 75 150 75 110 l 75 893 z "},"I":{"ha":324,"x_min":14,"x_max":310,"o":"m 75 893 q 72 958 75 933 q 63 995 69 982 q 45 1015 57 1008 q 14 1025 33 1021 l 14 1042 l 310 1042 l 310 1025 q 279 1015 292 1021 q 260 995 267 1008 q 251 958 254 982 q 249 893 249 933 l 249 150 q 251 85 249 110 q 260 48 254 61 q 279 28 267 35 q 310 18 292 22 l 310 0 l 14 0 l 14 18 q 45 28 33 22 q 63 48 57 35 q 72 85 69 61 q 75 150 75 110 l 75 893 z "},"J":{"ha":740,"x_min":14,"x_max":726,"o":"m 665 440 q 577 120 665 232 q 332 1 489 8 q 248 8 293 -1 q 159 42 203 17 q 77 112 115 68 q 14 221 39 156 l 140 350 l 153 343 q 156 206 143 265 q 197 106 169 146 q 260 48 224 67 q 333 32 297 29 q 409 67 379 36 q 458 153 439 99 q 484 280 476 207 q 492 440 492 353 l 492 893 q 489 958 492 933 q 480 995 486 982 q 462 1015 474 1008 q 431 1025 450 1021 l 431 1042 l 726 1042 l 726 1025 q 696 1015 708 1021 q 677 995 683 1008 q 668 958 671 982 q 665 893 665 933 l 665 440 z "},"K":{"ha":889,"x_min":14,"x_max":875,"o":"m 75 893 q 72 958 75 933 q 63 995 69 982 q 45 1015 57 1008 q 14 1025 33 1021 l 14 1042 l 310 1042 l 310 1025 q 279 1015 292 1021 q 260 995 267 1008 q 251 958 254 982 q 249 893 249 933 l 249 588 l 546 857 q 615 921 583 892 q 663 972 646 950 q 680 1008 681 994 q 653 1025 679 1021 l 653 1042 l 858 1042 l 857 1025 q 792 1008 822 1021 q 731 974 761 996 q 667 924 700 953 q 592 857 633 894 l 411 693 l 694 210 q 737 142 715 175 q 781 82 758 108 q 826 38 803 56 q 875 18 850 21 l 875 0 l 531 0 l 531 18 q 564 33 556 21 q 567 67 572 46 q 547 119 563 89 q 508 189 532 150 l 278 571 l 249 546 l 249 150 q 251 85 249 110 q 260 48 254 61 q 279 28 267 35 q 310 18 292 22 l 310 0 l 14 0 l 14 18 q 45 28 33 22 q 63 48 57 35 q 72 85 69 61 q 75 150 75 110 l 75 893 z "},"L":{"ha":825,"x_min":14,"x_max":811,"o":"m 75 893 q 72 958 75 933 q 63 995 69 982 q 45 1015 57 1008 q 14 1025 33 1021 l 14 1042 l 310 1042 l 310 1025 q 279 1015 292 1021 q 260 995 267 1008 q 251 958 254 982 q 249 893 249 933 l 249 158 q 262 65 249 100 q 322 31 275 31 l 399 31 q 561 43 497 31 q 668 82 625 56 q 740 149 711 108 q 796 247 768 190 l 811 247 l 750 0 l 14 0 l 14 18 q 65 59 56 26 q 75 160 75 92 l 75 893 z "},"M":{"ha":1153,"x_min":14,"x_max":1139,"o":"m 271 1042 l 615 238 l 903 944 q 891 999 901 981 q 843 1025 881 1018 l 843 1042 l 1139 1042 l 1139 1025 q 1108 1015 1121 1021 q 1090 995 1096 1008 q 1081 958 1083 982 q 1078 893 1078 933 l 1078 150 q 1081 85 1078 110 q 1090 48 1083 61 q 1108 28 1096 35 q 1139 18 1121 22 l 1139 0 l 843 0 l 843 18 q 874 28 863 22 q 892 48 886 35 q 901 85 899 61 q 904 150 904 110 l 904 874 l 538 0 l 174 825 q 159 862 167 846 q 144 892 151 878 l 144 151 q 149 85 144 111 q 163 45 153 60 q 186 25 172 31 q 218 18 200 19 l 218 0 l 38 0 l 38 18 q 71 25 57 19 q 94 45 85 31 q 109 85 104 60 q 114 150 114 110 l 114 943 q 63 1007 86 992 q 14 1025 39 1022 l 14 1042 l 271 1042 z "},"N":{"ha":913,"x_min":14,"x_max":899,"o":"m 274 1042 l 758 168 l 758 892 q 753 958 758 932 q 739 998 749 983 q 715 1018 729 1013 q 682 1025 701 1024 l 682 1042 l 863 1042 l 863 1025 q 831 1017 844 1024 q 807 997 817 1011 q 793 957 797 982 q 789 892 789 932 l 789 119 q 808 85 797 103 q 833 53 819 68 q 862 29 846 39 q 899 18 878 19 l 899 0 l 651 0 l 149 908 l 149 151 q 153 85 149 111 q 167 45 157 60 q 190 25 176 31 q 222 18 204 19 l 222 0 l 42 0 l 42 18 q 75 25 61 19 q 99 45 89 31 q 113 85 108 60 q 118 150 118 110 l 118 953 q 70 1004 94 986 q 14 1025 46 1022 l 14 1042 l 274 1042 z "},"O":{"ha":892,"x_min":10,"x_max":879,"o":"m 396 7 q 220 67 294 17 q 99 194 146 118 q 31 363 51 269 q 15 553 10 457 q 50 742 19 650 q 135 904 81 833 q 269 1018 190 975 q 449 1061 347 1061 q 638 1013 557 1061 q 774 885 719 964 q 853 708 828 807 q 877 506 879 608 q 844 307 875 403 q 754 140 814 211 q 605 31 694 68 q 396 7 515 -7 m 504 40 q 615 102 571 51 q 684 226 660 153 q 715 391 708 300 q 709 574 721 482 q 669 750 697 665 q 599 899 642 835 q 501 997 557 963 q 378 1021 446 1031 q 269 961 313 1011 q 202 838 225 911 q 175 673 179 764 q 183 490 171 582 q 224 312 196 397 q 293 163 251 226 q 388 64 335 99 q 504 40 440 29 z "},"P":{"ha":839,"x_min":14,"x_max":825,"o":"m 75 882 q 65 983 75 950 q 14 1025 56 1017 l 14 1042 l 400 1042 q 636 994 542 1042 q 778 874 731 946 q 824 717 825 801 q 772 561 822 633 q 622 441 722 489 q 369 393 521 393 l 249 393 l 249 150 q 251 90 249 114 q 260 52 254 67 q 279 30 267 38 q 310 18 292 22 l 310 0 l 14 0 l 14 18 q 45 30 33 22 q 63 52 57 38 q 72 90 69 67 q 75 150 75 114 l 75 882 m 329 425 q 514 469 442 425 q 620 577 586 513 q 651 718 654 642 q 613 859 649 794 q 508 967 576 924 q 342 1011 439 1011 l 249 1011 l 249 425 l 329 425 z "},"Q":{"ha":949,"x_min":8,"x_max":935,"o":"m 129 -50 q 227 3 178 -14 q 317 22 276 19 q 169 106 231 47 q 72 242 108 164 q 22 410 35 319 q 18 592 8 501 q 60 768 28 683 q 147 918 93 853 q 277 1022 201 983 q 449 1061 353 1061 q 631 1017 551 1061 q 763 899 710 972 q 845 733 817 826 q 876 542 874 640 q 856 350 879 444 q 784 181 833 256 q 658 58 735 106 q 479 6 582 10 q 569 -24 524 -10 q 663 -39 614 -39 q 758 -19 708 -39 q 860 53 807 0 l 935 -42 q 835 -108 882 -89 q 742 -126 788 -126 q 638 -108 689 -126 q 534 -66 586 -89 q 428 -24 482 -43 q 317 -6 375 -6 q 230 -18 275 -6 q 136 -62 185 -31 l 129 -50 m 504 40 q 615 102 571 51 q 684 226 660 153 q 715 391 708 300 q 709 574 721 482 q 669 750 697 665 q 599 899 642 835 q 501 997 557 963 q 378 1021 446 1031 q 269 961 313 1011 q 202 838 225 911 q 175 673 179 764 q 183 490 171 582 q 224 312 196 397 q 293 163 251 226 q 388 64 335 99 q 504 40 440 29 z "},"R":{"ha":885,"x_min":14,"x_max":871,"o":"m 75 882 q 65 983 75 950 q 14 1025 56 1017 l 14 1042 l 400 1042 q 619 1002 528 1042 q 763 902 710 963 q 830 767 815 842 q 820 624 844 693 q 733 500 796 556 q 567 421 669 444 l 692 210 q 733 142 713 175 q 777 82 754 108 q 823 38 800 56 q 871 18 846 21 l 871 0 l 526 0 l 526 18 q 560 33 551 21 q 565 67 569 46 q 544 119 560 89 q 506 189 529 150 q 492 211 499 200 q 476 236 485 222 l 411 346 q 383 393 396 372 l 249 393 l 249 150 q 251 90 249 114 q 260 52 254 67 q 279 30 267 38 q 310 18 292 22 l 310 0 l 14 0 l 14 18 q 45 30 33 22 q 63 52 57 38 q 72 90 69 67 q 75 150 75 114 l 75 882 m 343 425 q 528 469 456 425 q 633 577 600 513 q 664 718 667 642 q 624 859 661 794 q 515 967 586 924 q 342 1011 443 1011 l 249 1011 l 249 425 l 343 425 z "},"S":{"ha":833,"x_min":14,"x_max":819,"o":"m 617 260 q 571 355 611 315 q 473 426 531 394 q 349 486 415 457 q 226 551 283 515 q 127 633 168 586 q 81 747 86 681 q 105 881 74 822 q 192 979 136 939 q 320 1040 247 1019 q 468 1061 393 1061 q 580 1049 525 1061 q 681 1011 635 1036 q 764 947 728 986 q 819 856 800 908 l 708 726 l 694 732 q 692 867 707 811 q 645 960 678 924 q 568 1014 613 997 q 476 1031 524 1031 q 382 1014 428 1031 q 303 967 336 997 q 255 892 269 936 q 253 794 240 849 q 311 703 267 740 q 416 635 356 665 q 543 575 476 604 q 666 508 610 546 q 760 417 722 469 q 801 289 799 365 q 772 166 804 219 q 684 76 739 113 q 558 20 629 39 q 413 1 488 1 q 288 15 350 1 q 172 58 225 29 q 77 129 118 86 q 14 232 36 172 l 97 375 l 111 369 q 133 217 110 281 q 197 111 157 153 q 289 50 238 69 q 392 31 340 31 q 482 46 439 31 q 557 91 525 61 q 606 163 589 121 q 617 260 622 206 z "},"T":{"ha":890,"x_min":14,"x_max":876,"o":"m 531 150 q 533 85 531 110 q 542 48 536 61 q 561 28 549 35 q 592 18 574 22 l 592 0 l 296 0 l 296 18 q 327 28 315 22 q 345 48 339 35 q 354 85 351 61 q 357 150 357 110 l 357 1007 q 258 987 307 1000 q 165 950 208 974 q 86 892 121 926 q 29 807 51 857 l 14 807 l 72 1042 l 818 1042 l 876 807 l 861 807 q 804 892 839 857 q 726 951 769 928 q 632 988 682 975 q 531 1007 582 1001 l 531 150 z "},"U":{"ha":849,"x_min":14,"x_max":835,"o":"m 75 893 q 72 953 75 929 q 63 991 69 976 q 45 1013 57 1006 q 14 1025 33 1021 l 14 1042 l 310 1042 l 310 1025 q 279 1013 292 1021 q 260 991 267 1006 q 251 953 254 976 q 249 893 249 929 l 249 363 q 269 239 249 292 q 324 151 290 186 q 401 97 358 115 q 490 79 444 79 q 578 97 535 79 q 655 151 621 115 q 710 240 689 186 q 731 364 731 293 l 731 892 q 726 956 731 931 q 711 995 721 981 q 688 1017 701 1010 q 654 1025 674 1024 l 654 1042 l 835 1042 l 835 1025 q 803 1017 817 1024 q 779 995 789 1010 q 765 956 769 981 q 761 892 761 931 l 761 358 q 732 202 761 269 q 654 90 703 135 q 544 22 606 44 q 418 0 483 0 q 292 22 354 0 q 183 90 231 44 q 105 202 135 135 q 75 358 75 269 l 75 893 z "},"V":{"ha":919,"x_min":14,"x_max":906,"o":"m 356 1025 q 318 1012 331 1022 q 306 978 306 1001 q 317 919 306 956 q 349 825 328 882 l 563 268 l 740 828 q 766 916 757 881 q 774 974 775 951 q 761 1009 774 997 q 724 1025 749 1021 l 724 1042 l 906 1042 l 906 1025 q 865 1010 882 1021 q 833 976 847 999 q 804 916 818 953 q 772 825 790 879 l 494 0 l 158 825 q 121 915 138 878 q 88 975 104 951 q 54 1010 72 999 q 14 1025 36 1022 l 14 1042 l 356 1042 l 356 1025 z "},"W":{"ha":1399,"x_min":14,"x_max":1385,"o":"m 356 1025 q 318 1012 331 1022 q 306 978 306 1001 q 317 919 306 956 q 349 825 328 882 l 563 268 l 693 685 l 638 825 q 601 915 618 878 q 569 975 585 951 q 535 1010 553 999 q 494 1025 517 1022 l 494 1042 l 836 1042 l 836 1025 q 797 1012 810 1022 q 785 978 785 1001 q 796 919 785 956 q 829 825 807 882 l 1043 268 l 1219 828 q 1245 916 1236 881 q 1253 974 1254 951 q 1240 1009 1253 997 q 1203 1025 1228 1021 l 1203 1042 l 1385 1042 l 1385 1025 q 1344 1010 1361 1021 q 1313 976 1328 999 q 1284 916 1299 953 q 1253 825 1269 879 l 974 0 l 711 646 l 494 0 l 158 825 q 121 915 138 878 q 88 975 104 951 q 54 1010 72 999 q 14 1025 36 1022 l 14 1042 l 356 1042 l 356 1025 z "},"X":{"ha":1043,"x_min":14,"x_max":1029,"o":"m 467 440 l 282 150 q 249 88 258 113 q 242 49 239 64 q 259 28 244 35 q 296 18 274 21 l 296 0 l 72 0 l 72 18 q 117 28 97 22 q 157 48 138 35 q 197 85 176 61 q 244 150 218 110 l 449 468 l 171 893 q 127 958 146 933 q 92 995 108 982 q 57 1015 75 1008 q 14 1025 39 1021 l 14 1042 l 404 1042 l 404 1025 q 365 1011 379 1019 q 348 988 351 1003 q 353 949 344 972 q 383 893 363 926 l 575 592 l 767 893 q 800 955 790 931 q 807 994 810 979 q 790 1017 804 1010 q 753 1025 776 1024 l 753 1042 l 968 1042 l 968 1025 q 924 1015 943 1021 q 888 995 906 1008 q 850 958 869 982 q 804 893 831 933 l 594 564 l 864 150 q 910 85 890 110 q 948 48 929 61 q 985 28 967 35 q 1029 18 1004 22 l 1029 0 l 631 0 l 631 18 q 688 54 681 26 q 651 150 696 82 l 467 440 z "},"Y":{"ha":907,"x_min":14,"x_max":893,"o":"m 363 1025 q 315 975 310 1019 q 382 826 321 931 l 565 511 l 710 828 q 758 973 754 928 q 711 1025 763 1018 l 711 1042 l 893 1042 l 893 1025 q 852 1009 869 1021 q 818 974 835 997 q 784 915 801 951 q 743 825 767 878 l 589 488 l 589 150 q 592 85 589 110 q 601 48 594 61 q 619 28 607 35 q 650 18 632 22 l 650 0 l 354 0 l 354 18 q 385 28 374 22 q 403 48 397 35 q 413 85 410 61 q 415 150 415 110 l 415 419 l 183 825 q 134 911 156 875 q 93 972 113 947 q 55 1009 74 996 q 14 1025 36 1022 l 14 1042 l 363 1042 l 363 1025 z "},"Z":{"ha":931,"x_min":14,"x_max":917,"o":"m 676 1007 l 379 1007 q 266 993 314 1007 q 182 952 218 979 q 118 885 146 925 q 64 792 90 844 l 49 792 l 110 1042 l 907 1042 l 244 36 l 586 36 q 699 50 651 36 q 783 91 747 64 q 847 158 819 118 q 901 251 875 199 l 917 251 l 856 0 l 14 0 l 676 1007 z "},"a":{"ha":722,"x_min":11,"x_max":708,"o":"m 474 583 q 463 649 474 621 q 433 695 451 676 q 390 724 414 714 q 342 733 367 733 q 267 706 301 733 q 224 622 233 679 q 200 574 222 589 q 151 558 178 558 q 97 577 119 558 q 85 631 74 596 q 120 688 96 663 q 178 730 144 713 q 254 756 213 747 q 339 765 296 765 q 451 749 396 765 q 549 700 506 733 q 620 614 593 667 q 647 488 647 561 l 647 160 q 649 97 647 122 q 658 55 651 71 q 677 31 665 39 q 708 18 689 22 l 708 0 l 592 0 q 505 27 533 0 q 474 118 476 54 q 378 33 436 69 q 251 0 321 -3 q 117 40 171 3 q 37 131 63 76 q 15 247 11 185 q 52 363 18 310 q 151 451 86 415 q 313 486 215 486 q 389 481 349 486 q 474 463 429 475 l 474 583 m 474 432 q 430 439 450 436 q 390 442 410 442 q 276 416 321 442 q 210 352 232 390 q 188 269 189 314 q 202 187 186 225 q 251 123 218 149 q 328 97 283 97 q 396 113 360 97 q 474 163 432 128 l 474 432 z "},"n":{"ha":865,"x_min":14,"x_max":851,"o":"m 294 751 q 270 723 279 738 q 256 689 261 708 q 250 642 251 669 q 249 578 249 615 q 366 718 293 671 q 515 765 439 765 q 617 742 568 765 q 706 673 667 719 q 767 556 744 626 q 790 390 790 485 l 790 150 q 793 90 790 114 q 802 52 796 67 q 821 30 808 38 q 851 18 833 22 l 851 0 l 556 0 l 556 18 q 587 30 575 22 q 605 52 599 38 q 614 90 611 67 q 617 150 617 114 l 617 381 q 601 513 617 456 q 558 608 585 569 q 499 665 532 646 q 431 685 465 685 q 365 666 397 685 q 306 610 332 647 q 265 515 281 572 q 249 382 249 458 l 249 150 q 251 90 249 114 q 260 52 254 67 q 279 30 267 38 q 310 18 292 22 l 310 0 l 14 0 l 14 18 q 45 30 33 22 q 63 52 57 38 q 72 90 69 67 q 75 150 75 114 l 75 554 q 74 615 75 592 q 67 653 72 639 q 49 676 61 668 q 14 690 36 685 l 14 707 q 156 719 90 704 q 285 765 222 735 l 294 751 z "},"o":{"ha":838,"x_min":15,"x_max":825,"o":"m 407 -1 q 234 34 308 0 q 111 122 160 68 q 39 244 63 175 q 16 385 15 313 q 41 526 17 457 q 114 652 65 596 q 234 744 163 708 q 400 786 306 781 q 579 761 501 792 q 710 675 657 731 q 792 548 764 619 q 822 401 819 476 q 801 251 825 325 q 725 122 776 178 q 594 31 674 65 q 407 -1 515 -4 m 464 33 q 559 74 521 39 q 619 164 597 110 q 648 285 642 218 q 645 419 654 351 q 614 551 636 488 q 556 663 592 615 q 474 735 521 710 q 368 753 426 761 q 272 710 311 746 q 212 619 233 674 q 185 499 190 565 q 188 367 179 433 q 221 238 197 300 q 279 128 244 175 q 361 54 314 81 q 464 33 408 28 z "},"g":{"ha":850,"x_min":14,"x_max":829,"o":"m 413 18 q 274 40 339 19 q 237 24 256 33 q 205 5 218 15 q 185 -18 192 -6 q 185 -44 179 -31 q 242 -74 194 -69 q 358 -78 290 -78 q 501 -83 425 -78 q 641 -112 576 -87 q 748 -192 706 -137 q 790 -347 790 -247 q 758 -491 790 -431 q 671 -590 725 -551 q 548 -647 617 -628 q 407 -665 479 -665 q 259 -646 332 -665 q 131 -590 186 -626 q 45 -502 76 -554 q 19 -383 14 -450 q 44 -329 22 -347 q 90 -311 65 -311 q 133 -326 114 -311 q 154 -371 151 -342 q 183 -490 158 -440 q 247 -571 208 -539 q 334 -617 285 -603 q 435 -632 383 -632 q 553 -613 494 -632 q 656 -561 611 -594 q 726 -481 700 -528 q 746 -376 751 -433 q 710 -301 742 -328 q 633 -262 679 -275 q 528 -245 586 -249 q 412 -240 471 -242 q 298 -231 353 -237 q 202 -208 243 -225 q 139 -156 161 -190 q 124 -64 117 -122 q 135 -24 125 -42 q 163 9 146 -6 q 199 35 179 24 q 236 54 218 46 q 98 163 149 94 q 31 309 47 231 q 31 469 14 388 q 95 619 47 551 q 221 733 143 686 q 404 786 299 779 q 503 781 451 789 q 600 754 554 774 q 656 821 619 799 q 729 843 693 843 q 793 819 767 843 q 811 792 808 807 q 810 763 814 776 q 795 741 806 750 q 771 732 785 732 q 733 753 753 732 q 683 783 715 783 q 647 773 664 783 q 621 743 629 763 q 751 626 703 697 q 815 473 800 554 q 810 310 829 392 q 741 162 792 228 q 608 56 690 96 q 413 18 526 15 m 468 53 q 562 99 524 63 q 621 190 600 136 q 647 308 642 243 q 644 440 653 374 q 613 566 635 506 q 556 672 590 626 q 476 740 521 717 q 375 754 431 763 q 256 681 299 742 q 198 539 213 621 q 197 366 183 457 q 245 201 210 275 q 338 84 281 128 q 468 53 394 40 z "},"b":{"ha":794,"x_min":14,"x_max":781,"o":"m 249 722 q 381 763 301 754 q 550 744 476 772 q 674 664 624 715 q 751 543 725 613 q 779 400 778 474 q 756 254 781 326 q 679 126 732 182 q 547 35 626 69 q 357 0 467 0 l 14 0 l 14 18 q 44 28 32 22 q 63 46 56 33 q 72 79 69 58 q 75 133 75 100 l 75 832 q 74 893 75 869 q 67 931 72 917 q 49 953 61 946 q 14 967 36 961 l 14 985 q 156 997 90 982 q 285 1043 222 1011 l 294 1028 q 270 1000 279 1014 q 256 967 261 986 q 250 920 251 947 q 249 856 249 893 l 249 722 m 249 172 q 254 94 249 122 q 272 51 260 65 q 302 33 283 36 q 346 33 321 31 q 462 72 413 38 q 544 158 511 106 q 592 274 576 210 q 606 404 607 339 q 588 531 606 469 q 535 637 569 592 q 448 706 500 682 q 326 719 396 729 q 288 706 308 717 q 249 679 267 696 l 249 172 z "},"c":{"ha":742,"x_min":11,"x_max":728,"o":"m 350 -3 q 191 37 257 1 q 84 128 125 72 q 27 256 43 185 q 17 399 11 326 q 53 542 24 472 q 131 667 82 613 q 249 756 181 722 q 404 792 318 790 q 501 783 454 793 q 588 753 549 774 q 657 703 628 733 q 700 631 686 672 q 689 575 710 597 q 639 553 668 553 q 595 568 617 553 q 563 619 574 583 q 530 694 550 665 q 488 738 510 722 q 443 758 465 753 q 404 761 421 763 q 288 704 338 757 q 213 574 239 651 q 187 408 188 496 q 214 244 186 319 q 301 122 242 169 q 453 79 360 75 q 581 117 511 82 q 714 221 651 151 l 728 211 q 656 124 697 164 q 565 55 614 83 q 461 10 515 26 q 350 -3 407 -6 z "},"d":{"ha":794,"x_min":14,"x_max":781,"o":"m 546 832 q 544 893 546 869 q 538 931 543 917 q 519 953 532 946 q 485 967 507 961 l 485 985 q 627 997 561 982 q 756 1043 693 1011 l 765 1028 q 741 1000 750 1014 q 727 967 732 986 q 721 920 722 947 q 719 856 719 893 l 719 133 q 722 79 719 100 q 732 46 725 58 q 751 28 739 33 q 781 18 763 22 l 781 0 l 438 0 q 248 35 328 0 q 115 126 168 69 q 38 254 63 182 q 15 400 14 326 q 43 543 17 474 q 120 664 69 613 q 244 744 171 715 q 414 763 318 772 q 546 722 493 754 l 546 832 m 546 679 q 508 706 529 696 q 469 719 486 717 q 348 706 400 729 q 261 637 296 682 q 208 531 226 592 q 189 404 190 469 q 203 274 188 339 q 252 158 219 210 q 334 72 285 106 q 449 33 383 38 q 493 33 475 31 q 523 51 511 36 q 540 94 535 65 q 546 172 546 122 l 546 679 z "},"e":{"ha":767,"x_min":7,"x_max":757,"o":"m 372 -1 q 158 68 239 8 q 42 212 76 128 q 17 392 7 296 q 77 569 26 488 q 216 707 128 651 q 426 765 304 763 q 565 744 497 768 q 678 676 632 719 q 741 572 725 632 q 724 442 757 511 q 621 335 692 371 q 472 300 550 300 q 381 313 425 300 q 302 353 336 326 q 249 422 268 381 q 232 518 229 463 q 192 353 190 431 q 228 215 194 275 q 322 119 263 156 q 457 81 382 83 q 510 83 479 79 q 576 101 540 88 q 651 139 613 114 q 728 204 690 164 l 742 194 q 670 110 711 149 q 581 47 629 72 q 481 8 533 21 q 372 -1 428 -6 m 574 524 q 590 609 597 569 q 558 677 583 649 q 498 722 533 706 q 426 735 463 738 q 358 718 389 733 q 305 681 328 703 q 267 631 282 658 q 246 575 253 603 q 240 499 233 532 q 265 445 246 467 q 315 413 285 424 q 378 401 344 401 q 490 432 435 401 q 574 524 546 463 z "},"f":{"ha":617,"x_min":14,"x_max":610,"o":"m 249 719 l 249 150 q 251 90 249 114 q 260 52 254 67 q 279 30 267 38 q 310 18 292 22 l 310 0 l 14 0 l 14 18 q 45 30 33 22 q 63 52 57 38 q 72 90 69 67 q 75 150 75 114 l 75 719 l 22 719 l 22 750 l 76 750 q 106 894 79 835 q 174 992 133 954 q 267 1048 215 1031 q 369 1065 318 1065 q 450 1055 411 1065 q 520 1024 489 1044 q 573 976 551 1004 q 600 914 594 949 q 587 856 610 876 q 533 836 564 836 q 485 853 507 836 q 464 904 464 869 q 439 997 467 963 q 375 1032 411 1032 q 330 1017 353 1032 q 289 971 307 1003 q 260 888 271 939 q 249 765 249 838 l 249 750 l 360 750 l 360 719 l 249 719 z "},"h":{"ha":865,"x_min":14,"x_max":851,"o":"m 249 578 q 366 718 293 671 q 515 765 439 765 q 617 742 568 765 q 706 673 667 719 q 767 556 744 626 q 790 390 790 485 l 790 150 q 793 90 790 114 q 802 52 796 67 q 821 30 808 38 q 851 18 833 22 l 851 0 l 556 0 l 556 18 q 587 30 575 22 q 605 52 599 38 q 614 90 611 67 q 617 150 617 114 l 617 381 q 601 513 617 456 q 558 608 585 569 q 499 665 532 646 q 431 685 465 685 q 365 666 397 685 q 306 610 332 647 q 265 515 281 572 q 249 382 249 458 l 249 150 q 251 90 249 114 q 260 52 254 67 q 279 30 267 38 q 310 18 292 22 l 310 0 l 14 0 l 14 18 q 45 30 33 22 q 63 52 57 38 q 72 90 69 67 q 75 150 75 114 l 75 831 q 74 892 75 868 q 67 930 72 915 q 49 953 61 944 q 14 967 36 961 l 14 983 q 156 996 90 981 q 285 1042 222 1011 l 294 1028 q 270 999 279 1014 q 256 965 261 985 q 250 919 251 946 q 249 854 249 892 l 249 578 z "},"i":{"ha":324,"x_min":14,"x_max":310,"o":"m 61 860 q 90 926 60 904 q 157 947 121 947 q 219 928 192 947 q 247 872 247 910 q 239 835 247 851 q 216 806 231 818 q 183 789 201 794 q 146 783 165 783 q 88 801 114 783 q 61 860 63 819 m 249 150 q 251 90 249 114 q 260 52 254 67 q 279 30 267 38 q 310 18 292 22 l 310 0 l 14 0 l 14 18 q 45 30 33 22 q 63 52 57 38 q 72 90 69 67 q 75 150 75 114 l 75 547 q 74 610 75 585 q 67 651 72 635 q 49 676 61 667 q 14 690 36 685 l 14 707 q 156 719 90 704 q 285 765 222 735 l 294 751 q 270 723 279 738 q 256 689 261 708 q 250 642 251 669 q 249 578 249 615 l 249 150 z "},"j":{"ha":301,"x_min":-299,"x_max":288,"o":"m 54 860 q 83 926 53 904 q 150 947 114 947 q 213 928 185 947 q 240 872 240 910 q 232 835 240 851 q 209 806 224 818 q 176 789 194 794 q 139 783 158 783 q 81 801 107 783 q 54 860 56 819 m 242 -43 q 214 -210 242 -140 q 142 -325 186 -281 q 42 -391 97 -369 q -68 -412 -12 -412 q -154 -399 -112 -412 q -227 -361 -196 -386 q -278 -300 -258 -336 q -299 -218 -297 -264 q -271 -156 -296 -176 q -218 -135 -246 -135 q -176 -151 -194 -135 q -162 -203 -157 -168 q -157 -275 -165 -243 q -134 -331 -149 -307 q -99 -367 -119 -354 q -57 -379 -79 -379 q -12 -364 -35 -379 q 28 -316 11 -349 q 57 -232 46 -283 q 68 -107 68 -181 l 68 547 q 67 610 68 585 q 60 651 65 635 q 42 676 54 667 q 7 690 29 685 l 7 707 q 149 719 83 704 q 278 765 215 735 l 288 751 q 263 723 272 738 q 249 689 254 708 q 243 642 244 669 q 242 578 242 615 l 242 -43 z "},"k":{"ha":803,"x_min":14,"x_max":789,"o":"m 249 456 q 365 472 308 456 q 469 523 422 488 q 548 617 515 558 q 590 760 581 675 l 743 728 q 707 622 733 671 q 641 537 681 574 q 549 475 601 500 q 433 442 496 450 q 530 376 489 417 q 602 289 571 335 q 656 196 633 243 q 701 110 679 149 q 742 47 722 72 q 789 18 763 21 l 789 0 l 457 0 l 457 18 q 492 51 486 22 q 488 121 499 79 q 453 210 478 163 q 397 300 429 258 q 325 371 364 342 q 249 404 286 400 l 249 150 q 251 90 249 114 q 260 52 254 67 q 279 30 267 38 q 310 18 292 22 l 310 0 l 14 0 l 14 18 q 45 30 33 22 q 63 52 57 38 q 72 90 69 67 q 75 150 75 114 l 75 831 q 74 892 75 868 q 67 930 72 915 q 49 953 61 944 q 14 967 36 961 l 14 983 q 156 996 90 981 q 285 1042 222 1011 l 294 1028 q 270 999 279 1014 q 256 965 261 985 q 250 919 251 946 q 249 854 249 892 l 249 456 z "},"l":{"ha":324,"x_min":14,"x_max":310,"o":"m 249 150 q 251 90 249 114 q 260 52 254 67 q 279 30 267 38 q 310 18 292 22 l 310 0 l 14 0 l 14 18 q 45 30 33 22 q 63 52 57 38 q 72 90 69 67 q 75 150 75 114 l 75 831 q 74 892 75 868 q 67 930 72 915 q 49 953 61 944 q 14 967 36 961 l 14 983 q 156 996 90 981 q 285 1042 222 1011 l 294 1028 q 270 999 279 1014 q 256 965 261 985 q 250 919 251 946 q 249 854 249 892 l 249 150 z "},"m":{"ha":1407,"x_min":14,"x_max":1393,"o":"m 294 751 q 270 723 279 738 q 256 689 261 708 q 250 642 251 669 q 249 578 249 615 q 365 719 293 672 q 514 765 438 765 q 666 712 596 765 q 768 550 736 658 q 903 713 825 660 q 1060 765 981 765 q 1163 741 1114 765 q 1250 669 1213 717 q 1310 552 1288 622 q 1332 390 1332 482 l 1332 150 q 1335 90 1332 114 q 1344 52 1338 67 q 1363 30 1350 38 q 1393 18 1375 22 l 1393 0 l 1097 0 l 1097 18 q 1128 30 1117 22 q 1147 52 1140 38 q 1156 90 1153 67 q 1158 150 1158 114 l 1158 381 q 1142 515 1158 457 q 1100 610 1126 572 q 1040 668 1074 649 q 972 688 1007 688 q 905 669 938 688 q 847 613 872 650 q 806 518 821 575 q 790 385 790 461 l 790 150 q 793 90 790 114 q 802 52 796 67 q 821 30 808 38 q 851 18 833 22 l 851 0 l 556 0 l 556 18 q 587 30 575 22 q 605 52 599 38 q 614 90 611 67 q 617 150 617 114 l 617 381 q 601 513 617 456 q 558 608 585 569 q 499 665 532 646 q 431 685 465 685 q 365 666 397 685 q 306 610 332 647 q 265 515 281 572 q 249 382 249 458 l 249 150 q 251 90 249 114 q 260 52 254 67 q 279 30 267 38 q 310 18 292 22 l 310 0 l 14 0 l 14 18 q 45 30 33 22 q 63 52 57 38 q 72 90 69 67 q 75 150 75 114 l 75 554 q 74 615 75 592 q 67 653 72 639 q 49 676 61 668 q 14 690 36 685 l 14 707 q 156 719 90 704 q 285 765 222 735 l 294 751 z "},"p":{"ha":796,"x_min":14,"x_max":785,"o":"m 14 -249 q 45 -237 33 -244 q 63 -215 57 -229 q 72 -176 69 -200 q 75 -117 75 -153 l 75 547 q 64 649 75 615 q 14 690 53 682 l 14 707 q 157 724 92 708 q 285 765 222 740 l 293 753 q 335 761 314 758 q 378 767 356 764 q 546 742 472 772 q 671 660 619 713 q 751 538 722 607 q 782 395 779 468 q 761 251 785 322 q 685 124 738 181 q 552 34 633 68 q 357 0 471 0 l 249 0 l 249 -117 q 251 -176 249 -153 q 260 -215 254 -200 q 279 -237 267 -229 q 310 -249 292 -244 l 310 -267 l 14 -267 l 14 -249 m 249 146 q 258 83 249 107 q 284 48 268 60 q 319 33 300 36 q 356 33 338 31 q 478 73 428 39 q 558 159 528 107 q 601 274 589 211 q 608 403 613 338 q 583 529 603 468 q 529 636 563 590 q 450 708 496 682 q 347 728 404 733 q 296 713 315 725 q 266 683 276 700 q 252 646 256 667 q 249 606 249 625 l 249 146 z "},"q":{"ha":794,"x_min":14,"x_max":781,"o":"m 546 43 q 414 3 493 11 q 244 22 318 -7 q 120 101 171 50 q 43 222 69 153 q 15 365 17 292 q 38 511 14 439 q 115 640 63 583 q 248 731 168 696 q 438 765 328 765 l 781 765 l 781 749 q 751 739 763 744 q 732 721 739 733 q 722 688 725 708 q 719 633 719 667 l 719 -94 q 722 -154 719 -131 q 731 -192 725 -178 q 750 -215 738 -207 q 781 -226 763 -222 l 781 -244 l 485 -244 l 485 -226 q 516 -215 504 -222 q 534 -192 528 -207 q 543 -154 540 -178 q 546 -94 546 -131 l 546 43 m 546 594 q 540 673 546 644 q 523 715 535 701 q 493 733 511 729 q 449 733 475 736 q 334 695 383 729 q 252 609 285 661 q 203 492 219 557 q 189 362 188 428 q 208 235 190 296 q 261 128 226 174 q 348 60 296 83 q 469 47 400 38 q 508 60 486 50 q 546 86 529 71 l 546 594 z "},"r":{"ha":782,"x_min":14,"x_max":774,"o":"m 763 531 q 732 489 754 503 q 686 475 710 475 q 631 499 654 475 q 619 565 607 522 q 619 631 628 603 q 592 680 611 660 q 547 710 574 700 q 488 721 519 721 q 408 703 449 721 q 332 651 367 686 q 274 560 297 615 q 249 429 251 506 l 249 150 q 251 90 249 114 q 260 52 254 67 q 279 30 267 38 q 310 18 292 22 l 310 0 l 14 0 l 14 18 q 45 30 33 22 q 63 52 57 38 q 72 90 69 67 q 75 150 75 114 l 75 554 q 74 615 75 592 q 67 653 72 639 q 49 676 61 668 q 14 690 36 685 l 14 707 q 156 719 90 704 q 285 765 222 735 l 294 751 q 272 726 281 738 q 258 698 263 714 q 251 658 253 682 q 249 597 249 635 q 389 732 315 693 q 532 771 463 771 q 633 750 586 771 q 713 696 681 729 q 760 619 746 663 q 763 531 774 576 z "},"s":{"ha":721,"x_min":8,"x_max":707,"o":"m 325 750 q 270 728 296 744 q 228 687 244 711 q 207 633 211 663 q 219 569 203 603 q 286 506 244 531 q 377 464 328 482 q 477 429 426 446 q 570 388 528 413 q 641 326 613 363 q 674 231 669 289 q 658 140 678 181 q 599 71 638 100 q 505 24 560 42 q 383 1 450 6 q 265 6 325 -3 q 155 38 206 15 q 67 99 104 61 q 17 189 29 136 q 28 245 8 225 q 76 265 49 265 q 117 253 97 265 q 149 217 138 242 q 194 138 167 172 q 252 79 221 103 q 317 44 283 56 q 382 33 351 32 q 443 43 413 33 q 496 73 474 53 q 528 124 518 93 q 526 199 538 156 q 481 266 515 240 q 401 309 447 292 q 303 341 356 326 q 204 376 251 356 q 122 426 157 396 q 72 507 86 457 q 72 599 60 554 q 116 680 83 643 q 201 743 149 717 q 319 781 253 769 q 350 785 335 783 q 382 786 365 786 q 486 774 432 786 q 586 738 540 763 q 664 678 632 714 q 704 593 696 642 q 702 563 707 576 q 687 542 697 550 q 663 528 676 533 q 633 524 649 524 q 597 533 614 524 q 572 561 579 542 q 527 660 558 621 q 458 721 496 699 q 385 749 421 743 q 325 750 349 756 z "},"t":{"ha":374,"x_min":14,"x_max":360,"o":"m 249 719 l 249 150 q 251 90 249 114 q 260 52 254 67 q 279 30 267 38 q 310 18 292 22 l 310 0 l 14 0 l 14 18 q 45 30 33 22 q 63 52 57 38 q 72 90 69 67 q 75 150 75 114 l 75 719 l 22 719 l 22 750 q 158 807 104 761 q 250 925 211 853 l 278 913 q 258 846 267 882 q 249 765 249 810 l 249 750 l 360 750 l 360 719 l 249 719 z "},"u":{"ha":865,"x_min":14,"x_max":851,"o":"m 617 189 q 500 47 572 94 q 351 0 428 0 q 249 24 299 0 q 160 94 199 47 q 99 211 122 140 q 75 376 75 282 l 75 554 q 74 615 75 592 q 67 653 72 639 q 49 676 61 668 q 14 690 36 685 l 14 707 q 156 719 90 704 q 285 765 222 735 l 294 751 q 272 726 281 738 q 257 698 263 714 q 250 658 251 682 q 249 597 249 635 l 249 386 q 265 253 249 310 q 307 158 281 196 q 367 100 333 119 q 435 81 400 81 q 501 99 468 81 q 559 156 533 118 q 601 251 585 194 q 617 385 617 308 l 617 554 q 615 615 617 592 q 608 653 614 639 q 590 676 603 668 q 556 690 578 685 l 556 707 q 698 719 632 704 q 826 765 764 735 l 836 751 q 813 726 822 738 q 799 698 804 714 q 792 658 793 682 q 790 597 790 635 l 790 150 q 793 90 790 114 q 802 52 796 67 q 821 30 808 38 q 851 18 833 22 l 851 0 l 556 0 l 556 18 q 587 30 575 22 q 605 52 599 38 q 614 90 611 67 q 617 150 617 114 l 617 189 z "},"v":{"ha":849,"x_min":14,"x_max":835,"o":"m 139 565 q 107 631 121 604 q 80 675 93 657 q 51 703 67 693 q 14 717 36 713 l 15 733 q 161 737 85 728 q 300 765 238 746 l 307 750 q 284 729 290 742 q 280 701 278 717 q 289 669 282 686 q 304 633 296 651 l 503 211 l 676 617 q 705 708 704 675 q 678 746 706 740 l 678 760 q 755 758 722 757 q 828 765 788 758 l 835 750 q 763 703 789 735 q 710 613 738 672 l 422 -3 l 139 565 z "},"w":{"ha":1301,"x_min":14,"x_max":1288,"o":"m 139 565 q 107 631 121 604 q 80 675 93 657 q 51 703 67 693 q 14 717 36 713 l 15 733 q 161 737 85 728 q 300 765 238 746 l 307 750 q 284 729 290 742 q 280 701 278 717 q 289 669 282 686 q 304 633 296 651 l 503 211 l 622 503 l 592 565 q 560 631 574 604 q 533 675 546 657 q 504 703 519 693 q 467 717 489 713 l 468 733 q 614 737 538 728 q 753 765 690 746 l 760 750 q 737 729 743 742 q 733 701 731 717 q 742 669 735 686 q 757 633 749 651 l 956 211 l 1129 617 q 1158 708 1157 675 q 1131 746 1158 740 l 1131 760 q 1208 758 1175 757 q 1281 765 1240 758 l 1288 750 q 1216 703 1242 735 q 1163 613 1190 672 l 875 -3 l 640 471 l 422 -3 l 139 565 z "},"x":{"ha":794,"x_min":14,"x_max":778,"o":"m 629 199 q 672 134 654 161 q 706 90 690 107 q 738 63 722 72 q 776 49 754 53 l 778 31 q 705 33 743 33 q 628 28 667 32 q 555 16 590 24 q 490 -1 519 8 l 482 15 q 501 36 497 24 q 501 64 506 49 q 488 97 497 79 q 467 131 478 114 l 331 340 l 196 149 q 151 60 156 94 q 175 19 147 25 l 175 6 q 97 8 131 8 q 21 0 63 7 l 14 17 q 56 35 38 24 q 90 64 74 47 q 124 103 107 81 q 160 154 140 125 l 311 368 l 185 565 q 142 631 160 604 q 108 675 124 657 q 76 703 92 693 q 38 717 60 713 l 36 733 q 109 732 71 731 q 185 738 147 733 q 259 749 224 742 q 324 765 294 756 l 332 750 q 313 729 317 742 q 313 701 308 717 q 326 669 317 686 q 347 633 336 651 l 471 442 l 596 617 q 640 706 636 672 q 617 746 644 740 l 617 760 q 695 758 661 757 q 771 765 729 758 l 776 750 q 735 730 753 742 q 700 701 717 718 q 667 663 683 685 q 631 613 651 640 l 489 415 l 629 199 z "},"y":{"ha":849,"x_min":14,"x_max":835,"o":"m 139 565 q 108 631 121 604 q 81 675 94 657 q 51 703 67 693 q 14 717 36 713 l 15 733 q 161 737 85 728 q 300 765 238 746 l 307 750 q 284 729 290 742 q 280 701 278 717 q 289 669 282 686 q 304 633 296 651 l 503 211 l 676 617 q 705 708 704 675 q 678 746 706 740 l 678 760 q 755 758 722 757 q 828 765 788 758 l 835 750 q 763 703 789 735 q 710 613 738 672 l 422 -3 q 374 -106 403 -44 q 306 -222 344 -167 q 219 -317 268 -278 q 113 -354 171 -356 q 62 -331 76 -354 q 51 -281 47 -307 q 78 -233 56 -254 q 138 -217 100 -212 q 288 -162 222 -229 q 403 32 354 -94 l 139 565 z "},"z":{"ha":868,"x_min":14,"x_max":854,"o":"m 854 765 l 261 32 l 372 32 q 469 37 419 32 q 562 56 518 42 q 640 94 606 69 q 689 160 674 119 q 718 194 700 183 q 756 206 736 206 q 790 198 774 206 q 816 177 806 190 q 828 147 826 164 q 818 110 829 129 q 741 40 792 63 q 629 8 690 17 q 505 -1 568 -1 q 392 0 442 0 l 14 0 l 604 735 l 542 735 q 443 731 494 735 q 347 713 392 726 q 266 674 301 699 q 214 608 231 649 q 184 572 203 583 q 144 561 165 561 q 112 569 128 561 q 85 589 96 576 q 74 619 75 601 q 83 656 72 636 q 162 726 110 703 q 276 758 214 749 q 401 766 338 767 q 515 765 465 765 l 854 765 z "}}}
